<?xml version="1.0" encoding="utf-8"?>
<!-- Generator: Adobe Illustrator 26.0.2, SVG Export Plug-In . SVG Version: 6.00 Build 0)  -->
<svg version="1.1" id="Layer_1" xmlns="http://www.w3.org/2000/svg" xmlns:xlink="http://www.w3.org/1999/xlink" x="0px" y="0px"
	 viewBox="0 0 17 18.6" style="enable-background:new 0 0 17 18.6;" xml:space="preserve">
<style type="text/css">
	.st0{fill:none;}
	.st1{fill-rule:evenodd;clip-rule:evenodd;fill:#FFFFFF;}
</style>
<g>
	<path class="st0" d="M0,35.5h17v-48H0V35.5z"/>
	<path class="st1" d="M8.7,4.3c-0.1,0-0.2,0-0.3,0c0,0,0-0.2,0-0.3c0-1,0.5-1.9,1-2.5C10.1,0.6,11.2,0,12.2,0c0,0.1,0,0.2,0,0.4
		c0,1-0.4,1.9-1,2.6C10.6,3.7,9.6,4.3,8.7,4.3 M15.6,6.3c-0.1,0.1-2,1.2-2,3.5c0,2.8,2.4,3.7,2.5,3.8c0,0.1-0.4,1.3-1.3,2.6
		c-0.8,1.1-1.6,2.3-2.9,2.3c-1.3,0-1.6-0.7-3-0.7c-1.4,0-1.9,0.8-3.1,0.8c-1.2,0-2-1.1-2.9-2.4c-1.1-1.5-1.9-3.9-1.9-6.1
		c0-3.6,2.3-5.5,4.7-5.5c1.2,0,2.2,0.8,3,0.8c0.7,0,1.9-0.9,3.3-0.9C12.4,4.5,14.3,4.5,15.6,6.3"/>
</g>
</svg>
