<?xml version="1.0" encoding="utf-8"?>
<!-- Generator: Adobe Illustrator 26.0.3, SVG Export Plug-In . SVG Version: 6.00 Build 0)  -->
<svg version="1.1" id="Layer_1" xmlns="http://www.w3.org/2000/svg" xmlns:xlink="http://www.w3.org/1999/xlink" x="0px" y="0px"
	 viewBox="0 0 15 44" style="enable-background:new 0 0 15 44;" xml:space="preserve">
<style type="text/css">
	.st0{fill:none;}
	.st1{fill:#FFFFFF;}
</style>
<rect class="st0" width="15" height="44"/>
<path class="st1" d="M14,27.3l-3.5-3.5c1.9-2.3,1.6-5.7-0.8-7.6C7.4,14.3,4,14.6,2.1,17s-1.6,5.7,0.8,7.6c2,1.6,4.9,1.6,6.9,0
	l3.5,3.5c0.2,0.2,0.6,0.2,0.8,0S14.2,27.6,14,27.3L14,27.3L14,27.3z M2,20.4c0-2.4,1.9-4.3,4.3-4.3s4.3,1.9,4.3,4.3
	s-1.9,4.3-4.3,4.3C3.9,24.7,2,22.8,2,20.4z"/>
</svg>
